<?xml version="1.0" encoding="UTF-8"?>
<svg version="1.1" xmlns="http://www.w3.org/2000/svg" width="500" height="500">
<path d="M0 0 C165 0 330 0 500 0 C500 165 500 330 500 500 C335 500 170 500 0 500 C0 335 0 170 0 0 Z " fill="#FEFEFE" transform="translate(0,0)"/>
<path d="M0 0 C27.24412129 -0.07032016 54.48822882 -0.12310031 81.73242283 -0.15543652 C94.38455313 -0.17085497 107.03662678 -0.1918476 119.6887207 -0.22631836 C130.72614026 -0.25637539 141.76351877 -0.27561142 152.80097812 -0.28226548 C158.63626153 -0.28615032 164.47142755 -0.29517349 170.30667305 -0.31719017 C175.81829743 -0.33781394 181.32975801 -0.34378249 186.84141731 -0.33932304 C188.84584956 -0.34013683 190.85028829 -0.34594616 192.85468674 -0.35761642 C212.61265144 -0.46684296 231.98500284 1.45113962 251 7 C251.80824219 7.23460938 252.61648438 7.46921875 253.44921875 7.7109375 C255.66396001 8.40688207 257.82690226 9.18285816 260 10 C261.10472656 10.40863281 262.20945312 10.81726563 263.34765625 11.23828125 C298.49872327 24.56346182 327.47099214 50.04792315 343.5859375 84.328125 C355.43225945 110.74842962 360.43357253 137.57686122 360.375 166.4375 C360.37512085 167.35631958 360.3752417 168.27513916 360.37536621 169.22180176 C360.34749931 184.14225967 359.41120294 198.4185426 356 213 C355.84515137 213.68223633 355.69030273 214.36447266 355.53076172 215.06738281 C354.57665141 219.13106856 353.35441315 223.05375304 352 227 C351.76974121 227.69689941 351.53948242 228.39379883 351.30224609 229.11181641 C343.77553849 251.74034249 332.55114247 271.74339899 316 289 C314.69675781 290.41539062 314.69675781 290.41539062 313.3671875 291.859375 C297.0259597 309.25331951 276.2750562 320.1588865 254 328 C252.89785156 328.39058594 251.79570312 328.78117187 250.66015625 329.18359375 C228.39674121 336.25614958 205.19330213 336.57882227 182.08403921 336.40557575 C178.08967618 336.38007511 174.09529247 336.37818272 170.1008606 336.37347412 C162.58280149 336.36118392 155.06498312 336.32855771 147.54702866 336.28807616 C137.35557356 336.23442401 127.16404971 336.21329982 116.9724884 336.19006729 C100.98147963 336.15278098 84.99097813 336.07299965 69 336 C69 299.04 69 262.08 69 224 C46.23 224 23.46 224 0 224 C0 216.08 0 208.16 0 200 C31.02 200 62.04 200 94 200 C94 236.96 94 273.92 94 312 C111.593125 311.896875 129.18625 311.79375 147.3125 311.6875 C152.80946533 311.66260498 158.30643066 311.63770996 163.9699707 311.61206055 C169.02036209 311.57537621 169.02036209 311.57537621 174.07072449 311.5349884 C176.27117355 311.51913615 178.47166631 311.5086504 180.67216492 311.50288391 C193.35812785 311.46533181 205.87125656 311.00786986 218.48901367 309.62817383 C220.12947773 309.44906102 220.12947773 309.44906102 221.80308247 309.26632977 C253.518489 305.48301401 283.75216201 290.00341343 304.26953125 265.28125 C324.49803915 238.6143231 337.14837643 205.65681505 332.71142578 171.79785156 C328.96244809 152.70574237 315.70883634 137.92834741 300.15527344 127.37792969 C291.41148766 121.78777032 281.7285747 117.55467153 272 114 C272.37511719 114.680625 272.75023437 115.36125 273.13671875 116.0625 C286.84178968 142.02273512 289.03964066 173.58044063 280.93359375 201.69921875 C276.7719505 214.18414851 270.71823137 225.14384687 262 235 C261.22269531 235.91845703 261.22269531 235.91845703 260.4296875 236.85546875 C248.9452933 249.46521816 229.47210555 258.3310465 212.49342346 259.17411804 C208.26366061 259.2309302 204.0384186 259.22562378 199.80859375 259.1953125 C198.42777671 259.19236584 197.04695742 259.19032924 195.6661377 259.18920898 C190.58989069 259.17879386 185.51369176 259.15087149 180.4375 259.125 C169.073125 259.08375 157.70875 259.0425 146 259 C146 231.61 146 204.22 146 176 C120.59 176 95.18 176 69 176 C69 167.75 69 159.5 69 151 C102.33 151 135.66 151 170 151 C170 178.72 170 206.44 170 235 C211.12388188 235.92755769 211.12388188 235.92755769 245.125 217.0625 C260.71735505 198.72589046 260.36692098 173.72614505 259 151 C258.19046414 145.25601412 256.4571973 140.26057433 254 135 C253.61585938 134.07316406 253.23171875 133.14632812 252.8359375 132.19140625 C246.46495839 117.95421824 235.95740035 109.5679661 221.6640625 104.04296875 C209.61446779 100.61307345 197.81082539 100.73018551 185.37195015 100.75617027 C181.87439182 100.76182714 178.37715742 100.75249935 174.87962341 100.7389679 C164.94227627 100.70211889 155.00504076 100.68322656 145.06762695 100.69458008 C138.96517327 100.70049172 132.86317694 100.68188033 126.76081657 100.64869118 C124.45879331 100.64083218 122.1567189 100.64188221 119.85470772 100.65271568 C91.99416807 100.77814065 66.92124651 94.82086946 45 77 C44.02417969 76.20722656 43.04835937 75.41445312 42.04296875 74.59765625 C24.34812833 59.32812263 15.58938116 38.92978368 6.375 18 C6.05696411 17.27992767 5.73892822 16.55985535 5.41125488 15.81796265 C4.50411941 13.75661989 3.60580065 11.69169565 2.7109375 9.625 C2.18806152 8.42101562 1.66518555 7.21703125 1.12646484 5.9765625 C0 3 0 3 0 0 Z " fill="#030303" transform="translate(70,82)"/>
<path d="M0 0 C23.079631 -0.0468248 46.15925412 -0.08204006 69.23892307 -0.10362434 C79.95641739 -0.11391491 90.67388211 -0.1279326 101.39135742 -0.15087891 C110.73816303 -0.17088096 120.08494719 -0.18373255 129.4317736 -0.18817699 C134.37586909 -0.19077287 139.31990323 -0.19682758 144.26397896 -0.21146011 C148.92851735 -0.22515197 153.59296981 -0.22919947 158.2575264 -0.22621536 C159.95892874 -0.22676038 161.66033432 -0.2306681 163.36171913 -0.23841095 C196.36153566 -0.38107675 227.46145518 8.69565256 253 30 C253.88429688 30.73089844 254.76859375 31.46179688 255.6796875 32.21484375 C272.41279545 46.62825293 288.30546446 69.90085704 293 92 C292.67 92.99 292.34 93.98 292 95 C291.51273437 94.52691406 291.02546875 94.05382812 290.5234375 93.56640625 C275.08421889 79.16582598 255.89028162 70.40008596 236 64 C235.35047363 63.7824707 234.70094727 63.56494141 234.03173828 63.34082031 C193.96040778 49.96684937 151.68907231 50.59956141 110.01843262 51.09979248 C103.89980244 51.17288192 97.7814831 51.22928586 91.66250229 51.26269341 C88.85633149 51.28439437 86.05124277 51.32976421 83.24539185 51.37623596 C69.00613795 51.51339631 54.10454831 50.2579525 41.4375 43.125 C40.45595947 42.60184204 40.45595947 42.60184204 39.45458984 42.06811523 C37.61805568 41.074143 35.80583469 40.04849785 34 39 C33.12730469 38.49339844 32.25460938 37.98679688 31.35546875 37.46484375 C17.8821134 28.99385501 6.53849348 16.53853257 0 2 C0 1.34 0 0.68 0 0 Z " fill="#FDFDFD" transform="translate(107,107)"/>
</svg>
